<?xml version="1.0" encoding="UTF-8" standalone="no"?>
<!-- Generator: Adobe Illustrator 19.2.1, SVG Export Plug-In . SVG Version: 6.00 Build 0)  -->

<svg
   xmlns:dc="http://purl.org/dc/elements/1.1/"
   xmlns:cc="http://creativecommons.org/ns#"
   xmlns:rdf="http://www.w3.org/1999/02/22-rdf-syntax-ns#"
   xmlns:svg="http://www.w3.org/2000/svg"
   xmlns="http://www.w3.org/2000/svg"
   xmlns:xlink="http://www.w3.org/1999/xlink"
   xmlns:sodipodi="http://sodipodi.sourceforge.net/DTD/sodipodi-0.dtd"
   xmlns:inkscape="http://www.inkscape.org/namespaces/inkscape"
   version="1.1"
   id="Layer_1"
   x="0px"
   y="0px"
   viewBox="0 0 80 80"
   style="enable-background:new 0 0 80 80;"
   xml:space="preserve"
   width="80"
   height="80"
   sodipodi:docname="tijeras.svg"
   inkscape:version="0.92.5 (2060ec1f9f, 2020-04-08)"><metadata
   id="metadata49"><rdf:RDF><cc:Work
       rdf:about=""><dc:format>image/svg+xml</dc:format><dc:type
         rdf:resource="http://purl.org/dc/dcmitype/StillImage" /><dc:title></dc:title></cc:Work></rdf:RDF></metadata><defs
   id="defs47"><linearGradient
   inkscape:collect="always"
   id="linearGradient6078"><stop
     style="stop-color:#003380;stop-opacity:1;"
     offset="0"
     id="stop6074" /><stop
     style="stop-color:#003380;stop-opacity:0;"
     offset="1"
     id="stop6076" /></linearGradient><linearGradient
   inkscape:collect="always"
   id="linearGradient4602"><stop
     style="stop-color:#808080;stop-opacity:1;"
     offset="0"
     id="stop4598" /><stop
     style="stop-color:#808080;stop-opacity:0;"
     offset="1"
     id="stop4600" /></linearGradient>
	
	

	
	

	
	

	
	

		
	<linearGradient
   inkscape:collect="always"
   xlink:href="#linearGradient4602"
   id="linearGradient4596"
   x1="19.662001"
   y1="34.418999"
   x2="76.606003"
   y2="34.418999"
   gradientUnits="userSpaceOnUse" /><linearGradient
   inkscape:collect="always"
   xlink:href="#linearGradient4602"
   id="linearGradient4604"
   x1="19.662"
   y1="45.5815"
   x2="76.606"
   y2="45.5815"
   gradientUnits="userSpaceOnUse" /><linearGradient
   inkscape:collect="always"
   xlink:href="#linearGradient4602"
   id="linearGradient4614"
   x1="33.218773"
   y1="42.933361"
   x2="48.461021"
   y2="42.933361"
   gradientUnits="userSpaceOnUse" /><linearGradient
   inkscape:collect="always"
   xlink:href="#linearGradient6078"
   id="linearGradient6080"
   x1="2.4999995"
   y1="19.949"
   x2="33.567001"
   y2="19.949"
   gradientUnits="userSpaceOnUse" /><filter
   style="color-interpolation-filters:sRGB;"
   height="1.4"
   width="1.4"
   y="-0.2"
   x="-0.2"
   inkscape:label="Outline"
   id="filter6434"><feGaussianBlur
     in="SourceAlpha"
     stdDeviation="4"
     result="blur1"
     id="feGaussianBlur6410" /><feComposite
     in="SourceGraphic"
     in2="blur1"
     operator="out"
     result="composite1"
     id="feComposite6412" /><feColorMatrix
     values="1 0 0 0 0 0 1 0 0 0 0 0 1 0 0 0 0 0 100 -1 "
     result="colormatrix1"
     id="feColorMatrix6414" /><feGaussianBlur
     stdDeviation="0.5"
     result="blur2"
     id="feGaussianBlur6416" /><feComposite
     in="blur2"
     in2="blur2"
     operator="over"
     result="composite2"
     id="feComposite6418" /><feColorMatrix
     values="1 0 0 0 0 0 1 0 0 0 0 0 1 0 0 0 0 0 50 -5 "
     result="colormatrix2"
     id="feColorMatrix6420" /><feGaussianBlur
     stdDeviation="1"
     result="blur3"
     id="feGaussianBlur6422" /><feColorMatrix
     values="1 0 0 0 0 0 1 0 0 0 0 0 1 0 0 0 0 0 5 -1 "
     result="colormatrix3"
     id="feColorMatrix6424" /><feFlood
     flood-opacity="1"
     flood-color="rgb(0,0,0)"
     result="flood"
     id="feFlood6426" /><feComposite
     in="flood"
     in2="colormatrix3"
     k2="1"
     operator="in"
     result="composite3"
     id="feComposite6428" /><feComposite
     in="SourceGraphic"
     in2="colormatrix3"
     operator="out"
     result="composite4"
     id="feComposite6430" /><feComposite
     in="composite4"
     in2="composite3"
     k2="1"
     k3="1"
     operator="arithmetic"
     result="composite5"
     id="feComposite6432" /></filter><filter
   inkscape:label="Button"
   inkscape:menu="Bevels"
   inkscape:menu-tooltip="Soft bevel, slightly depressed middle"
   style="color-interpolation-filters:sRGB;"
   id="filter125"><feGaussianBlur
     stdDeviation="2.3"
     in="SourceAlpha"
     result="result0"
     id="feGaussianBlur99" /><feMorphology
     in="SourceAlpha"
     radius="6.6"
     result="result1"
     id="feMorphology101" /><feGaussianBlur
     stdDeviation="8.9"
     in="result1"
     id="feGaussianBlur103" /><feColorMatrix
     values="1 0 0 0 0 0 1 0 0 0 0 0 1 0 0 0 0 0 0.3 0"
     result="result91"
     id="feColorMatrix105" /><feComposite
     in="result0"
     operator="out"
     result="result2"
     in2="result91"
     id="feComposite107" /><feGaussianBlur
     stdDeviation="1.7"
     result="result4"
     id="feGaussianBlur109" /><feDiffuseLighting
     surfaceScale="10"
     id="feDiffuseLighting113"><feDistantLight
       azimuth="225"
       elevation="45"
       id="feDistantLight111" /></feDiffuseLighting><feBlend
     in2="SourceGraphic"
     mode="multiply"
     id="feBlend115" /><feComposite
     in2="SourceAlpha"
     operator="in"
     result="result3"
     id="feComposite117" /><feSpecularLighting
     in="result4"
     surfaceScale="5"
     specularExponent="17.9"
     id="feSpecularLighting121"><feDistantLight
       azimuth="225"
       elevation="45"
       id="feDistantLight119" /></feSpecularLighting><feComposite
     in2="result3"
     operator="atop"
     id="feComposite123" /></filter><filter
   inkscape:label="Button"
   inkscape:menu="Bevels"
   inkscape:menu-tooltip="Soft bevel, slightly depressed middle"
   style="color-interpolation-filters:sRGB;"
   id="filter153"><feGaussianBlur
     stdDeviation="2.3"
     in="SourceAlpha"
     result="result0"
     id="feGaussianBlur127" /><feMorphology
     in="SourceAlpha"
     radius="6.6"
     result="result1"
     id="feMorphology129" /><feGaussianBlur
     stdDeviation="8.9"
     in="result1"
     id="feGaussianBlur131" /><feColorMatrix
     values="1 0 0 0 0 0 1 0 0 0 0 0 1 0 0 0 0 0 0.3 0"
     result="result91"
     id="feColorMatrix133" /><feComposite
     in="result0"
     operator="out"
     result="result2"
     in2="result91"
     id="feComposite135" /><feGaussianBlur
     stdDeviation="1.7"
     result="result4"
     id="feGaussianBlur137" /><feDiffuseLighting
     surfaceScale="10"
     id="feDiffuseLighting141"><feDistantLight
       azimuth="225"
       elevation="45"
       id="feDistantLight139" /></feDiffuseLighting><feBlend
     in2="SourceGraphic"
     mode="multiply"
     id="feBlend143" /><feComposite
     in2="SourceAlpha"
     operator="in"
     result="result3"
     id="feComposite145" /><feSpecularLighting
     in="result4"
     surfaceScale="5"
     specularExponent="17.9"
     id="feSpecularLighting149"><feDistantLight
       azimuth="225"
       elevation="45"
       id="feDistantLight147" /></feSpecularLighting><feComposite
     in2="result3"
     operator="atop"
     id="feComposite151" /></filter><filter
   inkscape:label="Button"
   inkscape:menu="Bevels"
   inkscape:menu-tooltip="Soft bevel, slightly depressed middle"
   style="color-interpolation-filters:sRGB;"
   id="filter181"><feGaussianBlur
     stdDeviation="2.3"
     in="SourceAlpha"
     result="result0"
     id="feGaussianBlur155" /><feMorphology
     in="SourceAlpha"
     radius="6.6"
     result="result1"
     id="feMorphology157" /><feGaussianBlur
     stdDeviation="8.9"
     in="result1"
     id="feGaussianBlur159" /><feColorMatrix
     values="1 0 0 0 0 0 1 0 0 0 0 0 1 0 0 0 0 0 0.3 0"
     result="result91"
     id="feColorMatrix161" /><feComposite
     in="result0"
     operator="out"
     result="result2"
     in2="result91"
     id="feComposite163" /><feGaussianBlur
     stdDeviation="1.7"
     result="result4"
     id="feGaussianBlur165" /><feDiffuseLighting
     surfaceScale="10"
     id="feDiffuseLighting169"><feDistantLight
       azimuth="225"
       elevation="45"
       id="feDistantLight167" /></feDiffuseLighting><feBlend
     in2="SourceGraphic"
     mode="multiply"
     id="feBlend171" /><feComposite
     in2="SourceAlpha"
     operator="in"
     result="result3"
     id="feComposite173" /><feSpecularLighting
     in="result4"
     surfaceScale="5"
     specularExponent="17.9"
     id="feSpecularLighting177"><feDistantLight
       azimuth="225"
       elevation="45"
       id="feDistantLight175" /></feSpecularLighting><feComposite
     in2="result3"
     operator="atop"
     id="feComposite179" /></filter><filter
   inkscape:label="Button"
   inkscape:menu="Bevels"
   inkscape:menu-tooltip="Soft bevel, slightly depressed middle"
   style="color-interpolation-filters:sRGB;"
   id="filter209"><feGaussianBlur
     stdDeviation="2.3"
     in="SourceAlpha"
     result="result0"
     id="feGaussianBlur183" /><feMorphology
     in="SourceAlpha"
     radius="6.6"
     result="result1"
     id="feMorphology185" /><feGaussianBlur
     stdDeviation="8.9"
     in="result1"
     id="feGaussianBlur187" /><feColorMatrix
     values="1 0 0 0 0 0 1 0 0 0 0 0 1 0 0 0 0 0 0.3 0"
     result="result91"
     id="feColorMatrix189" /><feComposite
     in="result0"
     operator="out"
     result="result2"
     in2="result91"
     id="feComposite191" /><feGaussianBlur
     stdDeviation="1.7"
     result="result4"
     id="feGaussianBlur193" /><feDiffuseLighting
     surfaceScale="10"
     id="feDiffuseLighting197"><feDistantLight
       azimuth="225"
       elevation="45"
       id="feDistantLight195" /></feDiffuseLighting><feBlend
     in2="SourceGraphic"
     mode="multiply"
     id="feBlend199" /><feComposite
     in2="SourceAlpha"
     operator="in"
     result="result3"
     id="feComposite201" /><feSpecularLighting
     in="result4"
     surfaceScale="5"
     specularExponent="17.9"
     id="feSpecularLighting205"><feDistantLight
       azimuth="225"
       elevation="45"
       id="feDistantLight203" /></feSpecularLighting><feComposite
     in2="result3"
     operator="atop"
     id="feComposite207" /></filter><filter
   inkscape:label="Button"
   inkscape:menu="Bevels"
   inkscape:menu-tooltip="Soft bevel, slightly depressed middle"
   style="color-interpolation-filters:sRGB;"
   id="filter263"><feGaussianBlur
     stdDeviation="2.3"
     in="SourceAlpha"
     result="result0"
     id="feGaussianBlur237" /><feMorphology
     in="SourceAlpha"
     radius="6.6"
     result="result1"
     id="feMorphology239" /><feGaussianBlur
     stdDeviation="8.9"
     in="result1"
     id="feGaussianBlur241" /><feColorMatrix
     values="1 0 0 0 0 0 1 0 0 0 0 0 1 0 0 0 0 0 0.3 0"
     result="result91"
     id="feColorMatrix243" /><feComposite
     in="result0"
     operator="out"
     result="result2"
     in2="result91"
     id="feComposite245" /><feGaussianBlur
     stdDeviation="1.7"
     result="result4"
     id="feGaussianBlur247" /><feDiffuseLighting
     surfaceScale="10"
     id="feDiffuseLighting251"><feDistantLight
       azimuth="225"
       elevation="45"
       id="feDistantLight249" /></feDiffuseLighting><feBlend
     in2="SourceGraphic"
     mode="multiply"
     id="feBlend253" /><feComposite
     in2="SourceAlpha"
     operator="in"
     result="result3"
     id="feComposite255" /><feSpecularLighting
     in="result4"
     surfaceScale="5"
     specularExponent="17.9"
     id="feSpecularLighting259"><feDistantLight
       azimuth="225"
       elevation="45"
       id="feDistantLight257" /></feSpecularLighting><feComposite
     in2="result3"
     operator="atop"
     id="feComposite261" /></filter><pattern
   patternUnits="userSpaceOnUse"
   width="78.644066"
   height="78.81356"
   patternTransform="translate(0.67796612,0.84745759)"
   id="pattern119"><rect
     y="0"
     x="0"
     height="78.81356"
     width="78.644066"
     id="rect117"
     style="fill:#b7c4c8" /></pattern></defs><sodipodi:namedview
   pagecolor="#ffffff"
   bordercolor="#666666"
   borderopacity="1"
   objecttolerance="10"
   gridtolerance="10"
   guidetolerance="10"
   inkscape:pageopacity="0"
   inkscape:pageshadow="2"
   inkscape:window-width="5120"
   inkscape:window-height="1376"
   id="namedview45"
   showgrid="false"
   inkscape:zoom="5.9"
   inkscape:cx="57.624923"
   inkscape:cy="4.7158696"
   inkscape:window-x="0"
   inkscape:window-y="278"
   inkscape:window-maximized="1"
   inkscape:current-layer="layer2" />






<g
   inkscape:groupmode="layer"
   id="layer2"
   inkscape:label="Layer 2"
   style="display:inline"><rect
     style="fill:#b7c4c8;stroke-width:1;stroke-miterlimit:4;stroke-dasharray:none;stroke:#000000;stroke-opacity:1;stroke-linejoin:round;paint-order:markers fill stroke"
     id="rect5350"
     width="77.966103"
     height="77.966103"
     x="1.1864407"
     y="1.1864406" /></g><g
   inkscape:groupmode="layer"
   id="layer1"
   inkscape:label="Layer 1"
   style="display:inline"><path
     inkscape:connector-curvature="0"
     id="path2"
     d="m 63.157,69.5 c -3.071,0 -5.959,-1.196 -8.132,-3.368 L 19.662,30.769 28.768,21.663 76.606,69.5 Z"
     style="fill:url(#linearGradient4604);fill-opacity:1" /><g
     id="g6"
     style="fill:#4d4d4d;filter:url(#filter263)">
		<path
   inkscape:connector-curvature="0"
   id="path4"
   d="M 28.768,22.369 75.399,69 H 63.157 c -2.938,0 -5.701,-1.144 -7.778,-3.222 l -35.01,-35.01 8.399,-8.399 m 0,-1.414 -9.813,9.813 35.717,35.717 c 2.25,2.25 5.303,3.515 8.485,3.515 h 14.656 z"
   style="fill:#4d4d4d" />
	</g><g
     id="g12"
     style="fill:url(#linearGradient4614);fill-opacity:1">
	
		<rect
   x="34.422001"
   y="38.574001"
   transform="matrix(0.7071,-0.7071,0.7071,0.7071,-18.3967,41.4534)"
   style="fill:url(#linearGradient4614);fill-opacity:1"
   width="12.837"
   height="8.7189999"
   id="rect10" />
</g><g
     style="fill:#003380;fill-opacity:1;stroke:#00ae76;stroke-width:0;stroke-miterlimit:4;stroke-dasharray:none;stroke-opacity:1"
     id="g16">
		<path
   inkscape:connector-curvature="0"
   id="path14"
   d="m 19.83,30.936 -0.279,0.076 C 18.361,31.336 17.167,31.5 16,31.5 8.556,31.5 2.5,25.444 2.5,18 2.5,10.556 8.556,4.5 16,4.5 c 7.444,0 13.5,6.056 13.5,13.5 0,1.167 -0.164,2.361 -0.488,3.55 l -0.076,0.28 4.631,4.631 -9.274,8.937 z M 16,9.5 c -4.687,0 -8.5,3.813 -8.5,8.5 0,4.687 3.813,8.5 8.5,8.5 4.687,0 8.5,-3.813 8.5,-8.5 0,-4.687 -3.813,-8.5 -8.5,-8.5 z"
   style="fill:#003380;fill-opacity:1;stroke:#00ae76;stroke-width:0;stroke-miterlimit:4;stroke-dasharray:none;stroke-opacity:1" />
	</g><g
     style="stroke:#00ae76;stroke-width:0;stroke-miterlimit:4;stroke-dasharray:none;stroke-opacity:1;filter:url(#filter125)"
     id="g20">
		<path
   inkscape:connector-curvature="0"
   id="path18"
   d="m 16,5 c 7.168,0 13,5.832 13,13 0,1.122 -0.158,2.272 -0.47,3.419 l -0.152,0.56 0.41,0.41 4.065,4.065 -8.555,8.243 -3.909,-3.909 -0.41,-0.41 -0.56,0.152 C 18.272,30.842 17.122,31 16,31 8.832,31 3,25.168 3,18 3,10.832 8.832,5 16,5 m 0,22 c 4.963,0 9,-4.037 9,-9 0,-4.963 -4.037,-9 -9,-9 -4.963,0 -9,4.037 -9,9 0,4.963 4.037,9 9,9 M 16,4 C 8.268,4 2,10.268 2,18 c 0,7.732 6.268,14 14,14 1.276,0 2.506,-0.186 3.681,-0.505 l 4.603,4.603 9.995,-9.631 -4.785,-4.785 C 29.814,20.507 30,19.276 30,18 30,10.268 23.732,4 16,4 Z m 0,22 c -4.418,0 -8,-3.582 -8,-8 0,-4.418 3.582,-8 8,-8 4.418,0 8,3.582 8,8 0,4.418 -3.582,8 -8,8 z"
   style="fill:#000000;fill-opacity:1;stroke:#00ae76;stroke-width:0;stroke-miterlimit:4;stroke-dasharray:none;stroke-opacity:1;" />
	</g><path
     inkscape:connector-curvature="0"
     id="path24"
     d="M 19.662,49.231 55.025,13.868 C 57.198,11.696 60.086,10.5 63.157,10.5 H 76.606 L 28.769,58.338 Z"
     style="fill:url(#linearGradient4596);fill-opacity:1" /><path
     style="fill:#4d4d4d;filter:url(#filter209)"
     d="M 75.399,11 28.768,57.631 20.369,49.232 55.379,14.222 C 57.457,12.144 60.219,11 63.157,11 h 12.242 m 2.414,-1 H 63.157 c -3.183,0 -6.235,1.264 -8.485,3.515 l -35.717,35.716 9.813,9.813 z"
     id="path26"
     inkscape:connector-curvature="0" /><g
     id="g34"
     style="fill:#003380">
		<path
   inkscape:connector-curvature="0"
   id="path32"
   d="M 16,75.5 C 8.556,75.5 2.5,69.444 2.5,62 2.5,54.556 8.556,48.5 16,48.5 c 1.167,0 2.361,0.164 3.551,0.488 l 0.279,0.076 4.462,-4.461 9.274,8.937 -4.631,4.631 0.076,0.28 C 29.336,59.639 29.5,60.833 29.5,62 29.5,69.444 23.444,75.5 16,75.5 Z m 0,-22 c -4.687,0 -8.5,3.813 -8.5,8.5 0,4.687 3.813,8.5 8.5,8.5 4.687,0 8.5,-3.813 8.5,-8.5 0,-4.687 -3.813,-8.5 -8.5,-8.5 z"
   style="fill:#003380" />
	</g><g
     id="g38"
     style="fill:#002255;filter:url(#filter153)">
		<path
   inkscape:connector-curvature="0"
   id="path36"
   d="m 24.298,45.303 8.555,8.243 -4.065,4.065 -0.41,0.41 0.152,0.56 C 28.842,59.728 29,60.878 29,62 29,69.168 23.168,75 16,75 8.832,75 3,69.168 3,62 3,54.832 8.832,49 16,49 c 1.122,0 2.272,0.158 3.419,0.47 l 0.56,0.152 0.41,-0.41 3.909,-3.909 M 16,71 c 4.963,0 9,-4.037 9,-9 0,-4.963 -4.037,-9 -9,-9 -4.963,0 -9,4.037 -9,9 0,4.963 4.037,9 9,9 m 8.285,-27.098 -4.603,4.603 C 18.506,48.186 17.276,48 16,48 8.268,48 2,54.268 2,62 c 0,7.732 6.268,14 14,14 7.732,0 14,-6.268 14,-14 0,-1.276 -0.186,-2.506 -0.505,-3.681 L 34.28,53.534 Z M 16,70 c -4.418,0 -8,-3.582 -8,-8 0,-4.418 3.582,-8 8,-8 4.418,0 8,3.582 8,8 0,4.418 -3.582,8 -8,8 z"
   style="fill:#002255" />
	</g><circle
     style="fill:#4d4d4d;filter:url(#filter181)"
     cx="38"
     cy="40"
     r="3"
     id="circle42" /></g></svg>